# xmcd
#
# Track frame offsets: 
#        150
#        16743
#        31438
#        50249
#        65567
#        82555
#        99500
#        121220
#        139993
#
# Disc length: 2107 seconds
#
# Revision: 0
# Processed by: cddbd v1.5.2PL0 Copyright (c) Steve Scherf et al.
# Submitted via: ExactAudioCopyFreeDBPlugin 1.0
#
DISCID=70083909
DTITLE=Bernie Bremond - Lost and Found
DYEAR=2015
DGENRE=Blues
TTITLE0=Another Life
TTITLE1=Room Bang
TTITLE2=Call Me
TTITLE3=Keep Secrets
TTITLE4=Fool I Am
TTITLE5=I Don't Know
TTITLE6=Lost and Found
TTITLE7=Mile After Mile
TTITLE8=Same Game
EXTD=
EXTT0=
EXTT1=
EXTT2=
EXTT3=
EXTT4=
EXTT5=
EXTT6=
EXTT7=
EXTT8=
PLAYORDER=
